<?xml version="1.0" standalone="no"?>
<!DOCTYPE svg PUBLIC "-//W3C//DTD SVG 20010904//EN"
 "http://www.w3.org/TR/2001/REC-SVG-20010904/DTD/svg10.dtd">
<svg version="1.0" xmlns="http://www.w3.org/2000/svg"
 width="340.000000pt" height="369.000000pt" viewBox="0 0 340.000000 369.000000"
 preserveAspectRatio="xMidYMid meet">

<g transform="translate(0.000000,369.000000) scale(0.100000,-0.100000)"
fill="#000000" stroke="none">
<path d="M1625 3597 c-73 -25 -361 -179 -1145 -615 -270 -150 -290 -162 -347
-215 -57 -52 -80 -99 -93 -184 -5 -40 -10 -371 -10 -793 0 -615 3 -735 16
-790 27 -117 77 -166 302 -294 74 -42 135 -76 138 -76 2 0 81 -44 176 -97 95
-53 234 -130 308 -171 124 -69 182 -101 490 -266 233 -126 294 -119 615 63 61
35 112 66 115 69 3 4 10 8 15 9 9 2 114 61 198 112 20 13 37 27 37 32 0 6 16
17 35 25 19 8 35 19 35 24 0 6 9 10 19 10 11 0 23 5 26 11 4 6 14 8 22 5 8 -3
12 -2 9 2 -2 4 -1 14 5 22 6 11 9 12 9 2 0 -7 5 -10 10 -7 6 4 8 9 6 13 -2 4
13 16 35 26 34 17 44 31 40 58 0 4 39 26 87 50 48 23 91 47 95 55 4 7 15 13
22 13 27 0 16 17 -17 28 l-33 10 37 1 c20 1 49 6 64 11 38 15 81 53 76 69 -3
10 5 12 31 8 19 -2 40 -8 46 -11 6 -4 26 -8 45 -10 31 -2 36 1 41 26 4 15 10
28 15 28 4 0 6 8 3 18 -3 13 16 31 76 72 77 52 81 56 91 105 12 60 17 1498 6
1565 -11 61 -37 108 -83 151 -57 55 -109 86 -483 289 -108 58 -119 64 -355
195 -77 43 -158 88 -180 100 -22 12 -98 55 -170 95 -279 157 -379 190 -480
157z m220 -734 c50 -28 245 -137 435 -243 190 -106 365 -205 391 -221 82 -52
79 -30 79 -613 l0 -513 -23 -34 c-21 -32 -89 -77 -225 -149 -104 -55 -97 -85
-100 430 -2 446 -4 470 -38 470 -18 0 -404 -216 -433 -243 -50 -46 -51 -55
-51 -526 0 -289 -4 -448 -11 -463 -11 -26 -75 -69 -131 -89 -31 -11 -43 -10
-81 5 -25 9 -63 30 -85 45 l-39 29 -6 98 c-4 55 -7 266 -7 470 0 370 0 371
-23 405 -18 27 -100 77 -398 244 -206 116 -392 220 -413 233 -38 22 -38 24
-34 73 7 67 44 111 138 161 112 59 108 60 453 -133 410 -230 434 -242 477
-234 38 7 351 177 371 202 9 10 10 19 2 31 -5 10 -167 105 -359 212 -431 242
-416 218 -209 333 171 96 183 96 320 20z m-1003 -929 c76 -42 145 -86 153 -98
13 -17 15 -81 15 -380 0 -320 -2 -361 -17 -378 -9 -10 -21 -18 -26 -18 -6 0
-68 33 -140 73 -107 60 -133 79 -153 113 l-24 41 0 349 c0 358 2 374 39 374 8
0 77 -34 153 -76z m1843 -1376 c-6 -14 -51 -38 -72 -38 -7 0 -13 -4 -13 -8 0
-8 -43 -32 -57 -32 -17 0 121 88 139 90 4 0 5 -6 3 -12z"/>
<path d="M2718 573 c7 -3 16 -2 19 1 4 3 -2 6 -13 5 -11 0 -14 -3 -6 -6z"/>
<path d="M2460 390 c-9 -6 -10 -10 -3 -10 6 0 15 5 18 10 8 12 4 12 -15 0z"/>
</g>
</svg>
